# xmcd
#
# Track frame offsets: 
#        150
#        11852
#        22124
#        32953
#        48856
#        60001
#        71520
#        98042
#        110207
#        125302
#        138573
#        140258
#        154266
#        167431
#        178861
#        191542
#        201204
#        211496
#        226169
#        243483
#
# Disc length: 3386 seconds
#
# Revision: 1
# Processed by: cddbd v1.5.2PL0 Copyright (c) Steve Scherf et al.
# Submitted via: ExactAudioCopy v0.99pb4
#
DISCID=1a0d3814
DTITLE=Guitar Zack And Biffidus 2 Billion (Zack Wiesinger) - Plus Some
DTITLE=That Don't Fit The Mold
DYEAR=2007
DGENRE=Experimental
TTITLE0=Molt
TTITLE1=Horseman's Bliss
TTITLE2=Milk
TTITLE3=Gravy
TTITLE4=The Fridge Pigeon
TTITLE5=Bite The Leash
TTITLE6=Milx
TTITLE7=Malk
TTITLE8=Molk
TTITLE9=Melx
TTITLE10=Toothpick
TTITLE11=Mult
TTITLE12=Coffee And Lemons
TTITLE13=General Braddock
TTITLE14=Melt
TTITLE15=Mulx
TTITLE16=Marching To The Factory
TTITLE17=Molx
TTITLE18=Cravis
TTITLE19=Melk
EXTD=
EXTT0=
EXTT1=
EXTT2=
EXTT3=
EXTT4=
EXTT5=
EXTT6=
EXTT7=
EXTT8=
EXTT9=
EXTT10=
EXTT11=
EXTT12=
EXTT13=
EXTT14=
EXTT15=
EXTT16=
EXTT17=
EXTT18=
EXTT19=
PLAYORDER=
